<?xml version="1.0" encoding="iso-8859-1"?><!-- Generator: Adobe Illustrator 19.0.0, SVG Export Plug-In . SVG Version: 6.00 Build 0)  -->
<svg style="enable-background:new 0 0 512 512;" id="Capa_1" version="1.1"  viewBox="0 0 512 512" x="0px"
	 xmlns="http://www.w3.org/2000/svg" y="0px" xml:space="preserve">
<path style="fill:#44AAFF;" d="M256,0c-52.383,0-95,42.617-95,95s42.617,95,95,95s95-42.617,95-95S308.383,0,256,0z"/>
<path style="fill:#252728;" d="M256,0v190c52.383,0,95-42.617,95-95S308.383,0,256,0z"/>
<path style="fill:#44AAFF;" d="M345.16,423.551l-33.098-200c-1.198-7.24-7.46-12.551-14.799-12.551h-82.528
	c-7.339,0-13.601,5.311-14.799,12.551l-33.097,200c-0.719,4.347,0.509,8.791,3.359,12.151c2.85,3.36,7.034,5.298,11.44,5.298
	h148.723c4.406,0,8.59-1.938,11.439-5.298C344.651,432.342,345.88,427.898,345.16,423.551z"/>
<path style="fill:#252728;" d="M345.16,423.551l-33.098-200c-1.198-7.24-7.46-12.551-14.799-12.551H256v230h74.361
	c4.406,0,8.59-1.938,11.439-5.298C344.651,432.342,345.88,427.898,345.16,423.551z"/>
<g>
	<path style="fill:#5A5D60;" d="M346,160H166c-8.284,0-15,6.716-15,15v51c0,8.284,6.716,15,15,15h180c8.284,0,15-6.716,15-15v-51
		C361,166.716,354.284,160,346,160z"/>
	<path style="fill:#5A5D60;" d="M399.949,491.484l-28.078-71c-2.264-5.724-7.794-9.484-13.949-9.484H154.078
		c-6.155,0-11.686,3.76-13.949,9.484l-28.078,71c-1.827,4.619-1.249,9.842,1.544,13.95C116.388,509.542,121.033,512,126,512h260
		c4.967,0,9.612-2.458,12.404-6.566C401.197,501.326,401.775,496.103,399.949,491.484z"/>
</g>
<g>
	<path style="fill:#44AAFF;" d="M346,160h-90v81h90c8.284,0,15-6.716,15-15v-51C361,166.716,354.284,160,346,160z"/>
	<path style="fill:#44AAFF;" d="M399.949,491.484l-28.078-71c-2.264-5.724-7.794-9.484-13.949-9.484H256v101h130
		c4.967,0,9.612-2.458,12.404-6.566C401.197,501.326,401.775,496.103,399.949,491.484z"/>
</g>
<g>
</g>
<g>
</g>
<g>
</g>
<g>
</g>
<g>
</g>
<g>
</g>
<g>
</g>
<g>
</g>
<g>
</g>
<g>
</g>
<g>
</g>
<g>
</g>
<g>
</g>
<g>
</g>
<g>
</g>
</svg>
